<svg width="300" height="260" viewBox="0 0 300 260" fill="none" xmlns="http://www.w3.org/2000/svg">
<rect width="300" height="260" fill="white"/>
<line x1="149.135" y1="63.5185" x2="224.135" y2="84.5185" stroke="black"/>
<line x1="150.142" y1="63.4793" x2="76.1425" y2="85.4793" stroke="black"/>
<rect x="84" y="7" width="128" height="58" fill="#D5D5D5"/>
<path d="M127.087 22.28C128.271 22.28 129.343 22.552 130.303 23.096C131.263 23.624 132.015 24.376 132.559 25.352C133.103 26.328 133.375 27.44 133.375 28.688C133.375 29.936 133.103 31.048 132.559 32.024C132.015 33 131.263 33.76 130.303 34.304C129.343 34.848 128.271 35.12 127.087 35.12C126.031 35.12 125.079 34.896 124.231 34.448C123.399 34 122.727 33.352 122.215 32.504V35H120.583V17.192H122.287V24.776C122.815 23.96 123.487 23.344 124.303 22.928C125.135 22.496 126.063 22.28 127.087 22.28ZM126.967 33.608C127.847 33.608 128.647 33.408 129.367 33.008C130.087 32.592 130.647 32.008 131.047 31.256C131.463 30.504 131.671 29.648 131.671 28.688C131.671 27.728 131.463 26.872 131.047 26.12C130.647 25.368 130.087 24.792 129.367 24.392C128.647 23.976 127.847 23.768 126.967 23.768C126.071 23.768 125.263 23.976 124.543 24.392C123.839 24.792 123.279 25.368 122.863 26.12C122.463 26.872 122.263 27.728 122.263 28.688C122.263 29.648 122.463 30.504 122.863 31.256C123.279 32.008 123.839 32.592 124.543 33.008C125.263 33.408 126.071 33.608 126.967 33.608ZM142.009 35.12C140.793 35.12 139.697 34.848 138.721 34.304C137.745 33.744 136.977 32.976 136.417 32C135.857 31.024 135.577 29.92 135.577 28.688C135.577 27.456 135.857 26.352 136.417 25.376C136.977 24.4 137.745 23.64 138.721 23.096C139.697 22.552 140.793 22.28 142.009 22.28C143.225 22.28 144.321 22.552 145.297 23.096C146.273 23.64 147.033 24.4 147.577 25.376C148.137 26.352 148.417 27.456 148.417 28.688C148.417 29.92 148.137 31.024 147.577 32C147.033 32.976 146.273 33.744 145.297 34.304C144.321 34.848 143.225 35.12 142.009 35.12ZM142.009 33.608C142.905 33.608 143.705 33.408 144.409 33.008C145.129 32.592 145.689 32.008 146.089 31.256C146.489 30.504 146.689 29.648 146.689 28.688C146.689 27.728 146.489 26.872 146.089 26.12C145.689 25.368 145.129 24.792 144.409 24.392C143.705 23.976 142.905 23.768 142.009 23.768C141.113 23.768 140.305 23.976 139.585 24.392C138.881 24.792 138.321 25.368 137.905 26.12C137.505 26.872 137.305 27.728 137.305 28.688C137.305 29.648 137.505 30.504 137.905 31.256C138.321 32.008 138.881 32.592 139.585 33.008C140.305 33.408 141.113 33.608 142.009 33.608ZM163.416 17.192V35H161.784V32.504C161.272 33.352 160.592 34 159.744 34.448C158.912 34.896 157.968 35.12 156.912 35.12C155.728 35.12 154.656 34.848 153.696 34.304C152.736 33.76 151.984 33 151.44 32.024C150.896 31.048 150.624 29.936 150.624 28.688C150.624 27.44 150.896 26.328 151.44 25.352C151.984 24.376 152.736 23.624 153.696 23.096C154.656 22.552 155.728 22.28 156.912 22.28C157.936 22.28 158.856 22.496 159.672 22.928C160.504 23.344 161.184 23.96 161.712 24.776V17.192H163.416ZM157.056 33.608C157.936 33.608 158.728 33.408 159.432 33.008C160.152 32.592 160.712 32.008 161.112 31.256C161.528 30.504 161.736 29.648 161.736 28.688C161.736 27.728 161.528 26.872 161.112 26.12C160.712 25.368 160.152 24.792 159.432 24.392C158.728 23.976 157.936 23.768 157.056 23.768C156.16 23.768 155.352 23.976 154.632 24.392C153.928 24.792 153.368 25.368 152.952 26.12C152.552 26.872 152.352 27.728 152.352 28.688C152.352 29.648 152.552 30.504 152.952 31.256C153.368 32.008 153.928 32.592 154.632 33.008C155.352 33.408 156.16 33.608 157.056 33.608ZM178.769 22.376L172.457 36.512C171.945 37.696 171.353 38.536 170.681 39.032C170.009 39.528 169.201 39.776 168.257 39.776C167.649 39.776 167.081 39.68 166.553 39.488C166.025 39.296 165.569 39.008 165.185 38.624L165.977 37.352C166.617 37.992 167.385 38.312 168.281 38.312C168.857 38.312 169.345 38.152 169.745 37.832C170.161 37.512 170.545 36.968 170.897 36.2L171.449 34.976L165.809 22.376H167.585L172.337 33.104L177.089 22.376H178.769Z" fill="black"/>
<path d="M109.487 44.756C109.119 44.756 108.839 44.856 108.647 45.056C108.463 45.256 108.371 45.552 108.371 45.944V46.688H110.315V47.408H108.395V53H107.543V47.408H106.415V46.688H107.543V45.908C107.543 45.332 107.707 44.876 108.035 44.54C108.371 44.204 108.843 44.036 109.451 44.036C109.691 44.036 109.923 44.072 110.147 44.144C110.371 44.208 110.559 44.304 110.711 44.432L110.423 45.068C110.175 44.86 109.863 44.756 109.487 44.756ZM113.94 53.06C113.332 53.06 112.784 52.924 112.296 52.652C111.808 52.372 111.424 51.988 111.144 51.5C110.864 51.012 110.724 50.46 110.724 49.844C110.724 49.228 110.864 48.676 111.144 48.188C111.424 47.7 111.808 47.32 112.296 47.048C112.784 46.776 113.332 46.64 113.94 46.64C114.548 46.64 115.096 46.776 115.584 47.048C116.072 47.32 116.452 47.7 116.724 48.188C117.004 48.676 117.144 49.228 117.144 49.844C117.144 50.46 117.004 51.012 116.724 51.5C116.452 51.988 116.072 52.372 115.584 52.652C115.096 52.924 114.548 53.06 113.94 53.06ZM113.94 52.304C114.388 52.304 114.788 52.204 115.14 52.004C115.5 51.796 115.78 51.504 115.98 51.128C116.18 50.752 116.28 50.324 116.28 49.844C116.28 49.364 116.18 48.936 115.98 48.56C115.78 48.184 115.5 47.896 115.14 47.696C114.788 47.488 114.388 47.384 113.94 47.384C113.492 47.384 113.088 47.488 112.728 47.696C112.376 47.896 112.096 48.184 111.888 48.56C111.688 48.936 111.588 49.364 111.588 49.844C111.588 50.324 111.688 50.752 111.888 51.128C112.096 51.504 112.376 51.796 112.728 52.004C113.088 52.204 113.492 52.304 113.94 52.304ZM122.099 46.64C122.891 46.64 123.519 46.872 123.983 47.336C124.455 47.792 124.691 48.46 124.691 49.34V53H123.839V49.424C123.839 48.768 123.675 48.268 123.347 47.924C123.019 47.58 122.551 47.408 121.943 47.408C121.263 47.408 120.723 47.612 120.323 48.02C119.931 48.42 119.735 48.976 119.735 49.688V53H118.883V46.688H119.699V47.852C119.931 47.468 120.251 47.172 120.659 46.964C121.075 46.748 121.555 46.64 122.099 46.64ZM130.328 52.616C130.168 52.76 129.968 52.872 129.728 52.952C129.496 53.024 129.252 53.06 128.996 53.06C128.404 53.06 127.948 52.9 127.628 52.58C127.308 52.26 127.148 51.808 127.148 51.224V47.408H126.02V46.688H127.148V45.308H128V46.688H129.92V47.408H128V51.176C128 51.552 128.092 51.84 128.276 52.04C128.468 52.232 128.74 52.328 129.092 52.328C129.268 52.328 129.436 52.3 129.596 52.244C129.764 52.188 129.908 52.108 130.028 52.004L130.328 52.616ZM131.294 49.376H134.438V50.12H131.294V49.376ZM138.036 53.06C137.524 53.06 137.032 52.988 136.56 52.844C136.096 52.692 135.732 52.504 135.468 52.28L135.852 51.608C136.116 51.816 136.448 51.988 136.848 52.124C137.248 52.252 137.664 52.316 138.096 52.316C138.672 52.316 139.096 52.228 139.368 52.052C139.648 51.868 139.788 51.612 139.788 51.284C139.788 51.052 139.712 50.872 139.56 50.744C139.408 50.608 139.216 50.508 138.984 50.444C138.752 50.372 138.444 50.304 138.06 50.24C137.548 50.144 137.136 50.048 136.824 49.952C136.512 49.848 136.244 49.676 136.02 49.436C135.804 49.196 135.696 48.864 135.696 48.44C135.696 47.912 135.916 47.48 136.356 47.144C136.796 46.808 137.408 46.64 138.192 46.64C138.6 46.64 139.008 46.696 139.416 46.808C139.824 46.912 140.16 47.052 140.424 47.228L140.052 47.912C139.532 47.552 138.912 47.372 138.192 47.372C137.648 47.372 137.236 47.468 136.956 47.66C136.684 47.852 136.548 48.104 136.548 48.416C136.548 48.656 136.624 48.848 136.776 48.992C136.936 49.136 137.132 49.244 137.364 49.316C137.596 49.38 137.916 49.448 138.324 49.52C138.828 49.616 139.232 49.712 139.536 49.808C139.84 49.904 140.1 50.068 140.316 50.3C140.532 50.532 140.64 50.852 140.64 51.26C140.64 51.812 140.408 52.252 139.944 52.58C139.488 52.9 138.852 53.06 138.036 53.06ZM142.215 46.688H143.067V53H142.215V46.688ZM142.647 45.308C142.471 45.308 142.323 45.248 142.203 45.128C142.083 45.008 142.023 44.864 142.023 44.696C142.023 44.536 142.083 44.396 142.203 44.276C142.323 44.156 142.471 44.096 142.647 44.096C142.823 44.096 142.971 44.156 143.091 44.276C143.211 44.388 143.271 44.524 143.271 44.684C143.271 44.86 143.211 45.008 143.091 45.128C142.971 45.248 142.823 45.308 142.647 45.308ZM149.89 52.292V53H144.754V52.436L148.726 47.408H144.826V46.688H149.818V47.252L145.846 52.292H149.89ZM156.957 50.108H151.677C151.725 50.764 151.977 51.296 152.433 51.704C152.889 52.104 153.465 52.304 154.161 52.304C154.553 52.304 154.913 52.236 155.241 52.1C155.569 51.956 155.853 51.748 156.093 51.476L156.573 52.028C156.293 52.364 155.941 52.62 155.517 52.796C155.101 52.972 154.641 53.06 154.137 53.06C153.489 53.06 152.913 52.924 152.409 52.652C151.913 52.372 151.525 51.988 151.245 51.5C150.965 51.012 150.825 50.46 150.825 49.844C150.825 49.228 150.957 48.676 151.221 48.188C151.493 47.7 151.861 47.32 152.325 47.048C152.797 46.776 153.325 46.64 153.909 46.64C154.493 46.64 155.017 46.776 155.481 47.048C155.945 47.32 156.309 47.7 156.573 48.188C156.837 48.668 156.969 49.22 156.969 49.844L156.957 50.108ZM153.909 47.372C153.301 47.372 152.789 47.568 152.373 47.96C151.965 48.344 151.733 48.848 151.677 49.472H156.153C156.097 48.848 155.861 48.344 155.445 47.96C155.037 47.568 154.525 47.372 153.909 47.372ZM158.788 47.948C158.612 47.948 158.46 47.884 158.332 47.756C158.212 47.628 158.152 47.472 158.152 47.288C158.152 47.104 158.212 46.952 158.332 46.832C158.46 46.704 158.612 46.64 158.788 46.64C158.964 46.64 159.116 46.704 159.244 46.832C159.372 46.952 159.436 47.104 159.436 47.288C159.436 47.472 159.372 47.628 159.244 47.756C159.116 47.884 158.964 47.948 158.788 47.948ZM158.788 53.06C158.612 53.06 158.46 52.996 158.332 52.868C158.212 52.74 158.152 52.584 158.152 52.4C158.152 52.216 158.212 52.064 158.332 51.944C158.46 51.816 158.612 51.752 158.788 51.752C158.964 51.752 159.116 51.816 159.244 51.944C159.372 52.064 159.436 52.216 159.436 52.4C159.436 52.584 159.372 52.74 159.244 52.868C159.116 52.996 158.964 53.06 158.788 53.06ZM166.151 44.6V53H165.287V45.368H163.307V44.6H166.151ZM175.299 50.792H173.619V53H172.755V50.792H168.015V50.168L172.467 44.6H173.427L169.131 50.024H172.779V48.08H173.619V50.024H175.299V50.792ZM179.909 46.64C180.501 46.64 181.037 46.776 181.517 47.048C181.997 47.312 182.373 47.688 182.645 48.176C182.917 48.664 183.053 49.22 183.053 49.844C183.053 50.476 182.917 51.036 182.645 51.524C182.373 52.012 181.997 52.392 181.517 52.664C181.045 52.928 180.509 53.06 179.909 53.06C179.397 53.06 178.933 52.956 178.517 52.748C178.109 52.532 177.773 52.22 177.509 51.812V55.328H176.657V46.688H177.473V47.936C177.729 47.52 178.065 47.2 178.481 46.976C178.905 46.752 179.381 46.64 179.909 46.64ZM179.849 52.304C180.289 52.304 180.689 52.204 181.049 52.004C181.409 51.796 181.689 51.504 181.889 51.128C182.097 50.752 182.201 50.324 182.201 49.844C182.201 49.364 182.097 48.94 181.889 48.572C181.689 48.196 181.409 47.904 181.049 47.696C180.689 47.488 180.289 47.384 179.849 47.384C179.401 47.384 178.997 47.488 178.637 47.696C178.285 47.904 178.005 48.196 177.797 48.572C177.597 48.94 177.497 49.364 177.497 49.844C177.497 50.324 177.597 50.752 177.797 51.128C178.005 51.504 178.285 51.796 178.637 52.004C178.997 52.204 179.401 52.304 179.849 52.304ZM188.587 53L186.583 50.36L184.567 53H183.607L186.103 49.76L183.727 46.688H184.687L186.583 49.16L188.479 46.688H189.415L187.039 49.76L189.559 53H188.587Z" fill="black"/>
<line x1="224.5" y1="159" x2="224.5" y2="183" stroke="black"/>
<rect x="12" y="85" width="128" height="74" fill="#D5D5D5"/>
<path d="M53.092 113.12C52.068 113.12 51.084 112.976 50.14 112.688C49.212 112.384 48.484 112.008 47.956 111.56L48.724 110.216C49.252 110.632 49.916 110.976 50.716 111.248C51.516 111.504 52.348 111.632 53.212 111.632C54.364 111.632 55.212 111.456 55.756 111.104C56.316 110.736 56.596 110.224 56.596 109.568C56.596 109.104 56.444 108.744 56.14 108.488C55.836 108.216 55.452 108.016 54.988 107.888C54.524 107.744 53.908 107.608 53.14 107.48C52.116 107.288 51.292 107.096 50.668 106.904C50.044 106.696 49.508 106.352 49.06 105.872C48.628 105.392 48.412 104.728 48.412 103.88C48.412 102.824 48.852 101.96 49.732 101.288C50.612 100.616 51.836 100.28 53.404 100.28C54.22 100.28 55.036 100.392 55.852 100.616C56.668 100.824 57.34 101.104 57.868 101.456L57.124 102.824C56.084 102.104 54.844 101.744 53.404 101.744C52.316 101.744 51.492 101.936 50.932 102.32C50.388 102.704 50.116 103.208 50.116 103.832C50.116 104.312 50.268 104.696 50.572 104.984C50.892 105.272 51.284 105.488 51.748 105.632C52.212 105.76 52.852 105.896 53.668 106.04C54.676 106.232 55.484 106.424 56.092 106.616C56.7 106.808 57.22 107.136 57.652 107.6C58.084 108.064 58.3 108.704 58.3 109.52C58.3 110.624 57.836 111.504 56.908 112.16C55.996 112.8 54.724 113.12 53.092 113.12ZM67.9542 100.28C69.1382 100.28 70.2102 100.552 71.1702 101.096C72.1302 101.624 72.8822 102.376 73.4262 103.352C73.9702 104.328 74.2422 105.44 74.2422 106.688C74.2422 107.952 73.9702 109.072 73.4262 110.048C72.8822 111.024 72.1302 111.784 71.1702 112.328C70.2262 112.856 69.1542 113.12 67.9542 113.12C66.9302 113.12 66.0022 112.912 65.1702 112.496C64.3542 112.064 63.6822 111.44 63.1542 110.624V117.656H61.4502V100.376H63.0822V102.872C63.5942 102.04 64.2662 101.4 65.0982 100.952C65.9462 100.504 66.8982 100.28 67.9542 100.28ZM67.8342 111.608C68.7142 111.608 69.5142 111.408 70.2342 111.008C70.9542 110.592 71.5142 110.008 71.9142 109.256C72.3302 108.504 72.5382 107.648 72.5382 106.688C72.5382 105.728 72.3302 104.88 71.9142 104.144C71.5142 103.392 70.9542 102.808 70.2342 102.392C69.5142 101.976 68.7142 101.768 67.8342 101.768C66.9382 101.768 66.1302 101.976 65.4102 102.392C64.7062 102.808 64.1462 103.392 63.7302 104.144C63.3302 104.88 63.1302 105.728 63.1302 106.688C63.1302 107.648 63.3302 108.504 63.7302 109.256C64.1462 110.008 64.7062 110.592 65.4102 111.008C66.1302 111.408 66.9382 111.608 67.8342 111.608ZM82.0615 100.28C83.7095 100.28 84.9735 100.696 85.8535 101.528C86.7335 102.344 87.1735 103.56 87.1735 105.176V113H85.5415V111.032C85.1575 111.688 84.5895 112.2 83.8375 112.568C83.1015 112.936 82.2215 113.12 81.1975 113.12C79.7895 113.12 78.6695 112.784 77.8375 112.112C77.0055 111.44 76.5895 110.552 76.5895 109.448C76.5895 108.376 76.9735 107.512 77.7415 106.856C78.5255 106.2 79.7655 105.872 81.4615 105.872H85.4695V105.104C85.4695 104.016 85.1655 103.192 84.5575 102.632C83.9495 102.056 83.0615 101.768 81.8935 101.768C81.0935 101.768 80.3255 101.904 79.5895 102.176C78.8535 102.432 78.2215 102.792 77.6935 103.256L76.9255 101.984C77.5655 101.44 78.3335 101.024 79.2295 100.736C80.1255 100.432 81.0695 100.28 82.0615 100.28ZM81.4615 111.776C82.4215 111.776 83.2455 111.56 83.9335 111.128C84.6215 110.68 85.1335 110.04 85.4695 109.208V107.144H81.5095C79.3495 107.144 78.2695 107.896 78.2695 109.4C78.2695 110.136 78.5495 110.72 79.1095 111.152C79.6695 111.568 80.4535 111.776 81.4615 111.776ZM98.2338 100.28C99.8178 100.28 101.074 100.744 102.002 101.672C102.946 102.584 103.418 103.92 103.418 105.68V113H101.714V105.848C101.714 104.536 101.386 103.536 100.73 102.848C100.074 102.16 99.1378 101.816 97.9218 101.816C96.5618 101.816 95.4818 102.224 94.6818 103.04C93.8978 103.84 93.5058 104.952 93.5058 106.376V113H91.8018V100.376H93.4338V102.704C93.8978 101.936 94.5378 101.344 95.3538 100.928C96.1858 100.496 97.1458 100.28 98.2338 100.28Z" fill="black"/>
<path d="M37.4869 139.756C37.1189 139.756 36.8389 139.856 36.6469 140.056C36.4629 140.256 36.3709 140.552 36.3709 140.944V141.688H38.3149V142.408H36.3949V148H35.5429V142.408H34.4149V141.688H35.5429V140.908C35.5429 140.332 35.7069 139.876 36.0349 139.54C36.3709 139.204 36.8429 139.036 37.4509 139.036C37.6909 139.036 37.9229 139.072 38.1469 139.144C38.3709 139.208 38.5589 139.304 38.7109 139.432L38.4229 140.068C38.1749 139.86 37.8629 139.756 37.4869 139.756ZM41.9399 148.06C41.3319 148.06 40.7839 147.924 40.2959 147.652C39.8079 147.372 39.4239 146.988 39.1439 146.5C38.8639 146.012 38.7239 145.46 38.7239 144.844C38.7239 144.228 38.8639 143.676 39.1439 143.188C39.4239 142.7 39.8079 142.32 40.2959 142.048C40.7839 141.776 41.3319 141.64 41.9399 141.64C42.5479 141.64 43.0959 141.776 43.5839 142.048C44.0719 142.32 44.4519 142.7 44.7239 143.188C45.0039 143.676 45.1439 144.228 45.1439 144.844C45.1439 145.46 45.0039 146.012 44.7239 146.5C44.4519 146.988 44.0719 147.372 43.5839 147.652C43.0959 147.924 42.5479 148.06 41.9399 148.06ZM41.9399 147.304C42.3879 147.304 42.7879 147.204 43.1399 147.004C43.4999 146.796 43.7799 146.504 43.9799 146.128C44.1799 145.752 44.2799 145.324 44.2799 144.844C44.2799 144.364 44.1799 143.936 43.9799 143.56C43.7799 143.184 43.4999 142.896 43.1399 142.696C42.7879 142.488 42.3879 142.384 41.9399 142.384C41.4919 142.384 41.0879 142.488 40.7279 142.696C40.3759 142.896 40.0959 143.184 39.8879 143.56C39.6879 143.936 39.5879 144.364 39.5879 144.844C39.5879 145.324 39.6879 145.752 39.8879 146.128C40.0959 146.504 40.3759 146.796 40.7279 147.004C41.0879 147.204 41.4919 147.304 41.9399 147.304ZM50.0993 141.64C50.8913 141.64 51.5193 141.872 51.9833 142.336C52.4553 142.792 52.6913 143.46 52.6913 144.34V148H51.8393V144.424C51.8393 143.768 51.6753 143.268 51.3473 142.924C51.0193 142.58 50.5513 142.408 49.9433 142.408C49.2633 142.408 48.7233 142.612 48.3233 143.02C47.9313 143.42 47.7353 143.976 47.7353 144.688V148H46.8833V141.688H47.6993V142.852C47.9313 142.468 48.2513 142.172 48.6593 141.964C49.0753 141.748 49.5553 141.64 50.0993 141.64ZM58.3284 147.616C58.1684 147.76 57.9684 147.872 57.7284 147.952C57.4964 148.024 57.2524 148.06 56.9964 148.06C56.4044 148.06 55.9484 147.9 55.6284 147.58C55.3084 147.26 55.1484 146.808 55.1484 146.224V142.408H54.0204V141.688H55.1484V140.308H56.0004V141.688H57.9204V142.408H56.0004V146.176C56.0004 146.552 56.0924 146.84 56.2764 147.04C56.4684 147.232 56.7404 147.328 57.0924 147.328C57.2684 147.328 57.4364 147.3 57.5964 147.244C57.7644 147.188 57.9084 147.108 58.0284 147.004L58.3284 147.616ZM59.2942 144.376H62.4382V145.12H59.2942V144.376ZM66.0363 148.06C65.5243 148.06 65.0323 147.988 64.5603 147.844C64.0963 147.692 63.7323 147.504 63.4683 147.28L63.8523 146.608C64.1163 146.816 64.4483 146.988 64.8483 147.124C65.2483 147.252 65.6643 147.316 66.0963 147.316C66.6723 147.316 67.0963 147.228 67.3683 147.052C67.6483 146.868 67.7883 146.612 67.7883 146.284C67.7883 146.052 67.7123 145.872 67.5603 145.744C67.4083 145.608 67.2163 145.508 66.9843 145.444C66.7523 145.372 66.4443 145.304 66.0603 145.24C65.5483 145.144 65.1363 145.048 64.8243 144.952C64.5123 144.848 64.2443 144.676 64.0203 144.436C63.8043 144.196 63.6963 143.864 63.6963 143.44C63.6963 142.912 63.9163 142.48 64.3563 142.144C64.7963 141.808 65.4083 141.64 66.1923 141.64C66.6003 141.64 67.0083 141.696 67.4163 141.808C67.8243 141.912 68.1603 142.052 68.4243 142.228L68.0523 142.912C67.5323 142.552 66.9123 142.372 66.1923 142.372C65.6483 142.372 65.2363 142.468 64.9563 142.66C64.6843 142.852 64.5483 143.104 64.5483 143.416C64.5483 143.656 64.6243 143.848 64.7763 143.992C64.9363 144.136 65.1323 144.244 65.3643 144.316C65.5963 144.38 65.9163 144.448 66.3242 144.52C66.8283 144.616 67.2323 144.712 67.5363 144.808C67.8403 144.904 68.1003 145.068 68.3163 145.3C68.5323 145.532 68.6403 145.852 68.6403 146.26C68.6403 146.812 68.4083 147.252 67.9443 147.58C67.4883 147.9 66.8523 148.06 66.0363 148.06ZM70.2153 141.688H71.0673V148H70.2153V141.688ZM70.6473 140.308C70.4713 140.308 70.3233 140.248 70.2033 140.128C70.0833 140.008 70.0233 139.864 70.0233 139.696C70.0233 139.536 70.0833 139.396 70.2033 139.276C70.3233 139.156 70.4713 139.096 70.6473 139.096C70.8233 139.096 70.9713 139.156 71.0913 139.276C71.2113 139.388 71.2713 139.524 71.2713 139.684C71.2713 139.86 71.2113 140.008 71.0913 140.128C70.9713 140.248 70.8233 140.308 70.6473 140.308ZM77.89 147.292V148H72.754V147.436L76.726 142.408H72.826V141.688H77.818V142.252L73.846 147.292H77.89ZM84.9574 145.108H79.6774C79.7254 145.764 79.9774 146.296 80.4334 146.704C80.8894 147.104 81.4654 147.304 82.1614 147.304C82.5534 147.304 82.9134 147.236 83.2414 147.1C83.5694 146.956 83.8534 146.748 84.0934 146.476L84.5734 147.028C84.2934 147.364 83.9414 147.62 83.5174 147.796C83.1014 147.972 82.6414 148.06 82.1374 148.06C81.4894 148.06 80.9134 147.924 80.4094 147.652C79.9134 147.372 79.5254 146.988 79.2454 146.5C78.9654 146.012 78.8254 145.46 78.8254 144.844C78.8254 144.228 78.9574 143.676 79.2214 143.188C79.4934 142.7 79.8614 142.32 80.3254 142.048C80.7974 141.776 81.3254 141.64 81.9094 141.64C82.4934 141.64 83.0174 141.776 83.4814 142.048C83.9454 142.32 84.3094 142.7 84.5734 143.188C84.8374 143.668 84.9694 144.22 84.9694 144.844L84.9574 145.108ZM81.9094 142.372C81.3014 142.372 80.7894 142.568 80.3734 142.96C79.9654 143.344 79.7334 143.848 79.6774 144.472H84.1534C84.0974 143.848 83.8614 143.344 83.4454 142.96C83.0374 142.568 82.5254 142.372 81.9094 142.372ZM86.7876 142.948C86.6116 142.948 86.4596 142.884 86.3316 142.756C86.2116 142.628 86.1516 142.472 86.1516 142.288C86.1516 142.104 86.2116 141.952 86.3316 141.832C86.4596 141.704 86.6116 141.64 86.7876 141.64C86.9636 141.64 87.1156 141.704 87.2436 141.832C87.3716 141.952 87.4356 142.104 87.4356 142.288C87.4356 142.472 87.3716 142.628 87.2436 142.756C87.1156 142.884 86.9636 142.948 86.7876 142.948ZM86.7876 148.06C86.6116 148.06 86.4596 147.996 86.3316 147.868C86.2116 147.74 86.1516 147.584 86.1516 147.4C86.1516 147.216 86.2116 147.064 86.3316 146.944C86.4596 146.816 86.6116 146.752 86.7876 146.752C86.9636 146.752 87.1156 146.816 87.2436 146.944C87.3716 147.064 87.4356 147.216 87.4356 147.4C87.4356 147.584 87.3716 147.74 87.2436 147.868C87.1156 147.996 86.9636 148.06 86.7876 148.06ZM94.1512 139.6V148H93.2872V140.368H91.3072V139.6H94.1512ZM103.299 145.792H101.619V148H100.755V145.792H96.0152V145.168L100.467 139.6H101.427L97.1312 145.024H100.779V143.08H101.619V145.024H103.299V145.792ZM107.909 141.64C108.501 141.64 109.037 141.776 109.517 142.048C109.997 142.312 110.373 142.688 110.645 143.176C110.917 143.664 111.053 144.22 111.053 144.844C111.053 145.476 110.917 146.036 110.645 146.524C110.373 147.012 109.997 147.392 109.517 147.664C109.045 147.928 108.509 148.06 107.909 148.06C107.397 148.06 106.933 147.956 106.517 147.748C106.109 147.532 105.773 147.22 105.509 146.812V150.328H104.657V141.688H105.473V142.936C105.729 142.52 106.065 142.2 106.481 141.976C106.905 141.752 107.381 141.64 107.909 141.64ZM107.849 147.304C108.289 147.304 108.689 147.204 109.049 147.004C109.409 146.796 109.689 146.504 109.889 146.128C110.097 145.752 110.201 145.324 110.201 144.844C110.201 144.364 110.097 143.94 109.889 143.572C109.689 143.196 109.409 142.904 109.049 142.696C108.689 142.488 108.289 142.384 107.849 142.384C107.401 142.384 106.997 142.488 106.637 142.696C106.285 142.904 106.005 143.196 105.797 143.572C105.597 143.94 105.497 144.364 105.497 144.844C105.497 145.324 105.597 145.752 105.797 146.128C106.005 146.504 106.285 146.796 106.637 147.004C106.997 147.204 107.401 147.304 107.849 147.304ZM116.587 148L114.583 145.36L112.567 148H111.607L114.103 144.76L111.727 141.688H112.687L114.583 144.16L116.479 141.688H117.415L115.039 144.76L117.559 148H116.587Z" fill="black"/>
<rect x="81" y="125" width="6" height="6" fill="#FF0000"/>
<path d="M47.8489 131.06C47.2249 131.06 46.6649 130.924 46.1689 130.652C45.6809 130.38 45.2969 130 45.0169 129.512C44.7369 129.016 44.5969 128.46 44.5969 127.844C44.5969 127.228 44.7369 126.676 45.0169 126.188C45.2969 125.7 45.6809 125.32 46.1689 125.048C46.6649 124.776 47.2249 124.64 47.8489 124.64C48.3929 124.64 48.8769 124.748 49.3009 124.964C49.7329 125.172 50.0729 125.48 50.3209 125.888L49.6849 126.32C49.4769 126.008 49.2129 125.776 48.8929 125.624C48.5729 125.464 48.2249 125.384 47.8489 125.384C47.3929 125.384 46.9809 125.488 46.6129 125.696C46.2529 125.896 45.9689 126.184 45.7609 126.56C45.5609 126.936 45.4609 127.364 45.4609 127.844C45.4609 128.332 45.5609 128.764 45.7609 129.14C45.9689 129.508 46.2529 129.796 46.6129 130.004C46.9809 130.204 47.3929 130.304 47.8489 130.304C48.2249 130.304 48.5729 130.228 48.8929 130.076C49.2129 129.924 49.4769 129.692 49.6849 129.38L50.3209 129.812C50.0729 130.22 49.7329 130.532 49.3009 130.748C48.8689 130.956 48.3849 131.06 47.8489 131.06ZM54.4692 131.06C53.8612 131.06 53.3132 130.924 52.8252 130.652C52.3372 130.372 51.9532 129.988 51.6732 129.5C51.3932 129.012 51.2532 128.46 51.2532 127.844C51.2532 127.228 51.3932 126.676 51.6732 126.188C51.9532 125.7 52.3372 125.32 52.8252 125.048C53.3132 124.776 53.8612 124.64 54.4692 124.64C55.0772 124.64 55.6252 124.776 56.1132 125.048C56.6012 125.32 56.9812 125.7 57.2532 126.188C57.5332 126.676 57.6732 127.228 57.6732 127.844C57.6732 128.46 57.5332 129.012 57.2532 129.5C56.9812 129.988 56.6012 130.372 56.1132 130.652C55.6252 130.924 55.0772 131.06 54.4692 131.06ZM54.4692 130.304C54.9172 130.304 55.3172 130.204 55.6692 130.004C56.0292 129.796 56.3092 129.504 56.5092 129.128C56.7092 128.752 56.8092 128.324 56.8092 127.844C56.8092 127.364 56.7092 126.936 56.5092 126.56C56.3092 126.184 56.0292 125.896 55.6692 125.696C55.3172 125.488 54.9172 125.384 54.4692 125.384C54.0212 125.384 53.6172 125.488 53.2572 125.696C52.9052 125.896 52.6252 126.184 52.4172 126.56C52.2172 126.936 52.1172 127.364 52.1172 127.844C52.1172 128.324 52.2172 128.752 52.4172 129.128C52.6252 129.504 52.9052 129.796 53.2572 130.004C53.6172 130.204 54.0212 130.304 54.4692 130.304ZM59.4126 122.096H60.2646V131H59.4126V122.096ZM65.2153 131.06C64.6073 131.06 64.0593 130.924 63.5713 130.652C63.0833 130.372 62.6993 129.988 62.4193 129.5C62.1393 129.012 61.9993 128.46 61.9993 127.844C61.9993 127.228 62.1393 126.676 62.4193 126.188C62.6993 125.7 63.0833 125.32 63.5713 125.048C64.0593 124.776 64.6073 124.64 65.2153 124.64C65.8233 124.64 66.3713 124.776 66.8593 125.048C67.3473 125.32 67.7273 125.7 67.9993 126.188C68.2793 126.676 68.4193 127.228 68.4193 127.844C68.4193 128.46 68.2793 129.012 67.9993 129.5C67.7273 129.988 67.3473 130.372 66.8593 130.652C66.3713 130.924 65.8233 131.06 65.2153 131.06ZM65.2153 130.304C65.6633 130.304 66.0633 130.204 66.4153 130.004C66.7753 129.796 67.0553 129.504 67.2553 129.128C67.4553 128.752 67.5553 128.324 67.5553 127.844C67.5553 127.364 67.4553 126.936 67.2553 126.56C67.0553 126.184 66.7753 125.896 66.4153 125.696C66.0633 125.488 65.6633 125.384 65.2153 125.384C64.7673 125.384 64.3633 125.488 64.0033 125.696C63.6513 125.896 63.3713 126.184 63.1633 126.56C62.9633 126.936 62.8633 127.364 62.8633 127.844C62.8633 128.324 62.9633 128.752 63.1633 129.128C63.3713 129.504 63.6513 129.796 64.0033 130.004C64.3633 130.204 64.7673 130.304 65.2153 130.304ZM70.9747 125.924C71.1747 125.5 71.4707 125.18 71.8627 124.964C72.2627 124.748 72.7547 124.64 73.3387 124.64V125.468L73.1347 125.456C72.4707 125.456 71.9507 125.66 71.5747 126.068C71.1987 126.476 71.0107 127.048 71.0107 127.784V131H70.1587V124.688H70.9747V125.924ZM75.0825 125.948C74.9065 125.948 74.7545 125.884 74.6265 125.756C74.5065 125.628 74.4465 125.472 74.4465 125.288C74.4465 125.104 74.5065 124.952 74.6265 124.832C74.7545 124.704 74.9065 124.64 75.0825 124.64C75.2585 124.64 75.4105 124.704 75.5385 124.832C75.6665 124.952 75.7305 125.104 75.7305 125.288C75.7305 125.472 75.6665 125.628 75.5385 125.756C75.4105 125.884 75.2585 125.948 75.0825 125.948ZM75.0825 131.06C74.9065 131.06 74.7545 130.996 74.6265 130.868C74.5065 130.74 74.4465 130.584 74.4465 130.4C74.4465 130.216 74.5065 130.064 74.6265 129.944C74.7545 129.816 74.9065 129.752 75.0825 129.752C75.2585 129.752 75.4105 129.816 75.5385 129.944C75.6665 130.064 75.7305 130.216 75.7305 130.4C75.7305 130.584 75.6665 130.74 75.5385 130.868C75.4105 130.996 75.2585 131.06 75.0825 131.06ZM90.92 125.924C91.12 125.5 91.416 125.18 91.808 124.964C92.208 124.748 92.7 124.64 93.284 124.64V125.468L93.08 125.456C92.416 125.456 91.896 125.66 91.52 126.068C91.144 126.476 90.956 127.048 90.956 127.784V131H90.104V124.688H90.92V125.924ZM100.264 128.108H94.9841C95.0321 128.764 95.2841 129.296 95.7401 129.704C96.1961 130.104 96.7721 130.304 97.4681 130.304C97.8601 130.304 98.2201 130.236 98.5481 130.1C98.8761 129.956 99.1601 129.748 99.4001 129.476L99.8801 130.028C99.6001 130.364 99.2481 130.62 98.8241 130.796C98.4081 130.972 97.9481 131.06 97.4441 131.06C96.7961 131.06 96.2201 130.924 95.7161 130.652C95.2201 130.372 94.8321 129.988 94.5521 129.5C94.2721 129.012 94.1321 128.46 94.1321 127.844C94.1321 127.228 94.2641 126.676 94.5281 126.188C94.8001 125.7 95.1681 125.32 95.6321 125.048C96.1041 124.776 96.6321 124.64 97.2161 124.64C97.8001 124.64 98.3241 124.776 98.7881 125.048C99.2521 125.32 99.6161 125.7 99.8801 126.188C100.144 126.668 100.276 127.22 100.276 127.844L100.264 128.108ZM97.2161 125.372C96.6081 125.372 96.0961 125.568 95.6801 125.96C95.2721 126.344 95.0401 126.848 94.9841 127.472H99.4601C99.4041 126.848 99.1681 126.344 98.7521 125.96C98.3441 125.568 97.8321 125.372 97.2161 125.372ZM107.77 122.096V131H106.954V129.752C106.698 130.176 106.358 130.5 105.934 130.724C105.518 130.948 105.046 131.06 104.518 131.06C103.926 131.06 103.39 130.924 102.91 130.652C102.43 130.38 102.054 130 101.782 129.512C101.51 129.024 101.374 128.468 101.374 127.844C101.374 127.22 101.51 126.664 101.782 126.176C102.054 125.688 102.43 125.312 102.91 125.048C103.39 124.776 103.926 124.64 104.518 124.64C105.03 124.64 105.49 124.748 105.898 124.964C106.314 125.172 106.654 125.48 106.918 125.888V122.096H107.77ZM104.59 130.304C105.03 130.304 105.426 130.204 105.778 130.004C106.138 129.796 106.418 129.504 106.618 129.128C106.826 128.752 106.93 128.324 106.93 127.844C106.93 127.364 106.826 126.936 106.618 126.56C106.418 126.184 106.138 125.896 105.778 125.696C105.426 125.488 105.03 125.384 104.59 125.384C104.142 125.384 103.738 125.488 103.378 125.696C103.026 125.896 102.746 126.184 102.538 126.56C102.338 126.936 102.238 127.364 102.238 127.844C102.238 128.324 102.338 128.752 102.538 129.128C102.746 129.504 103.026 129.796 103.378 130.004C103.738 130.204 104.142 130.304 104.59 130.304Z" fill="black"/>
<rect x="160" y="85" width="128" height="74" fill="#D5D5D5"/>
<path d="M225.247 100.28C226.431 100.28 227.503 100.552 228.463 101.096C229.423 101.624 230.175 102.376 230.719 103.352C231.263 104.328 231.535 105.44 231.535 106.688C231.535 107.952 231.263 109.072 230.719 110.048C230.175 111.024 229.423 111.784 228.463 112.328C227.519 112.856 226.447 113.12 225.247 113.12C224.223 113.12 223.295 112.912 222.463 112.496C221.647 112.064 220.975 111.44 220.447 110.624V117.656H218.743V100.376H220.375V102.872C220.887 102.04 221.559 101.4 222.391 100.952C223.239 100.504 224.191 100.28 225.247 100.28ZM225.127 111.608C226.007 111.608 226.807 111.408 227.527 111.008C228.247 110.592 228.807 110.008 229.207 109.256C229.623 108.504 229.831 107.648 229.831 106.688C229.831 105.728 229.623 104.88 229.207 104.144C228.807 103.392 228.247 102.808 227.527 102.392C226.807 101.976 226.007 101.768 225.127 101.768C224.231 101.768 223.423 101.976 222.703 102.392C221.999 102.808 221.439 103.392 221.023 104.144C220.623 104.88 220.423 105.728 220.423 106.688C220.423 107.648 220.623 108.504 221.023 109.256C221.439 110.008 221.999 110.592 222.703 111.008C223.423 111.408 224.231 111.608 225.127 111.608Z" fill="black"/>
<path d="M174.196 139.096H175.048V148H174.196V139.096ZM177.418 141.688H178.27V148H177.418V141.688ZM177.85 140.308C177.674 140.308 177.526 140.248 177.406 140.128C177.286 140.008 177.226 139.864 177.226 139.696C177.226 139.536 177.286 139.396 177.406 139.276C177.526 139.156 177.674 139.096 177.85 139.096C178.026 139.096 178.174 139.156 178.294 139.276C178.414 139.388 178.474 139.524 178.474 139.684C178.474 139.86 178.414 140.008 178.294 140.128C178.174 140.248 178.026 140.308 177.85 140.308ZM183.857 141.64C184.649 141.64 185.277 141.872 185.741 142.336C186.213 142.792 186.449 143.46 186.449 144.34V148H185.597V144.424C185.597 143.768 185.433 143.268 185.105 142.924C184.777 142.58 184.309 142.408 183.701 142.408C183.021 142.408 182.481 142.612 182.081 143.02C181.689 143.42 181.493 143.976 181.493 144.688V148H180.641V141.688H181.457V142.852C181.689 142.468 182.009 142.172 182.417 141.964C182.833 141.748 183.313 141.64 183.857 141.64ZM194.282 145.108H189.002C189.05 145.764 189.302 146.296 189.758 146.704C190.214 147.104 190.79 147.304 191.486 147.304C191.878 147.304 192.238 147.236 192.566 147.1C192.894 146.956 193.178 146.748 193.418 146.476L193.898 147.028C193.618 147.364 193.266 147.62 192.842 147.796C192.426 147.972 191.966 148.06 191.462 148.06C190.814 148.06 190.238 147.924 189.734 147.652C189.238 147.372 188.85 146.988 188.57 146.5C188.29 146.012 188.15 145.46 188.15 144.844C188.15 144.228 188.282 143.676 188.546 143.188C188.818 142.7 189.186 142.32 189.65 142.048C190.122 141.776 190.65 141.64 191.234 141.64C191.818 141.64 192.342 141.776 192.806 142.048C193.27 142.32 193.634 142.7 193.898 143.188C194.162 143.668 194.294 144.22 194.294 144.844L194.282 145.108ZM191.234 142.372C190.626 142.372 190.114 142.568 189.698 142.96C189.29 143.344 189.058 143.848 189.002 144.472H193.478C193.422 143.848 193.186 143.344 192.77 142.96C192.362 142.568 191.85 142.372 191.234 142.372ZM195.677 144.376H198.821V145.12H195.677V144.376ZM203.943 141.64C204.735 141.64 205.363 141.872 205.827 142.336C206.299 142.792 206.535 143.46 206.535 144.34V148H205.683V144.424C205.683 143.768 205.519 143.268 205.191 142.924C204.863 142.58 204.395 142.408 203.787 142.408C203.107 142.408 202.567 142.612 202.167 143.02C201.775 143.42 201.579 143.976 201.579 144.688V148H200.727V139.096H201.579V142.792C201.811 142.424 202.131 142.14 202.539 141.94C202.947 141.74 203.415 141.64 203.943 141.64ZM214.368 145.108H209.088C209.136 145.764 209.388 146.296 209.844 146.704C210.3 147.104 210.876 147.304 211.572 147.304C211.964 147.304 212.324 147.236 212.652 147.1C212.98 146.956 213.264 146.748 213.504 146.476L213.984 147.028C213.704 147.364 213.352 147.62 212.928 147.796C212.512 147.972 212.052 148.06 211.548 148.06C210.9 148.06 210.324 147.924 209.82 147.652C209.324 147.372 208.936 146.988 208.656 146.5C208.376 146.012 208.236 145.46 208.236 144.844C208.236 144.228 208.368 143.676 208.632 143.188C208.904 142.7 209.272 142.32 209.736 142.048C210.208 141.776 210.736 141.64 211.32 141.64C211.904 141.64 212.428 141.776 212.892 142.048C213.356 142.32 213.72 142.7 213.984 143.188C214.248 143.668 214.38 144.22 214.38 144.844L214.368 145.108ZM211.32 142.372C210.712 142.372 210.2 142.568 209.784 142.96C209.376 143.344 209.144 143.848 209.088 144.472H213.564C213.508 143.848 213.272 143.344 212.856 142.96C212.448 142.568 211.936 142.372 211.32 142.372ZM216.114 141.688H216.966V148H216.114V141.688ZM216.546 140.308C216.37 140.308 216.222 140.248 216.102 140.128C215.982 140.008 215.922 139.864 215.922 139.696C215.922 139.536 215.982 139.396 216.102 139.276C216.222 139.156 216.37 139.096 216.546 139.096C216.722 139.096 216.87 139.156 216.99 139.276C217.11 139.388 217.17 139.524 217.17 139.684C217.17 139.86 217.11 140.008 216.99 140.128C216.87 140.248 216.722 140.308 216.546 140.308ZM225.18 141.688V147.232C225.18 148.304 224.916 149.096 224.388 149.608C223.868 150.128 223.08 150.388 222.024 150.388C221.44 150.388 220.884 150.3 220.356 150.124C219.836 149.956 219.412 149.72 219.084 149.416L219.516 148.768C219.82 149.04 220.188 149.252 220.62 149.404C221.06 149.556 221.52 149.632 222 149.632C222.8 149.632 223.388 149.444 223.764 149.068C224.14 148.7 224.328 148.124 224.328 147.34V146.536C224.064 146.936 223.716 147.24 223.284 147.448C222.86 147.656 222.388 147.76 221.868 147.76C221.276 147.76 220.736 147.632 220.248 147.376C219.768 147.112 219.388 146.748 219.108 146.284C218.836 145.812 218.7 145.28 218.7 144.688C218.7 144.096 218.836 143.568 219.108 143.104C219.388 142.64 219.768 142.28 220.248 142.024C220.728 141.768 221.268 141.64 221.868 141.64C222.404 141.64 222.888 141.748 223.32 141.964C223.752 142.18 224.1 142.492 224.364 142.9V141.688H225.18ZM221.952 147.004C222.408 147.004 222.82 146.908 223.188 146.716C223.556 146.516 223.84 146.24 224.04 145.888C224.248 145.536 224.352 145.136 224.352 144.688C224.352 144.24 224.248 143.844 224.04 143.5C223.84 143.148 223.556 142.876 223.188 142.684C222.828 142.484 222.416 142.384 221.952 142.384C221.496 142.384 221.084 142.48 220.716 142.672C220.356 142.864 220.072 143.136 219.864 143.488C219.664 143.84 219.564 144.24 219.564 144.688C219.564 145.136 219.664 145.536 219.864 145.888C220.072 146.24 220.356 146.516 220.716 146.716C221.084 146.908 221.496 147.004 221.952 147.004ZM230.779 141.64C231.571 141.64 232.199 141.872 232.663 142.336C233.135 142.792 233.371 143.46 233.371 144.34V148H232.519V144.424C232.519 143.768 232.355 143.268 232.027 142.924C231.699 142.58 231.231 142.408 230.623 142.408C229.943 142.408 229.403 142.612 229.003 143.02C228.611 143.42 228.415 143.976 228.415 144.688V148H227.563V139.096H228.415V142.792C228.647 142.424 228.967 142.14 229.375 141.94C229.783 141.74 230.251 141.64 230.779 141.64ZM239.008 147.616C238.848 147.76 238.648 147.872 238.408 147.952C238.176 148.024 237.932 148.06 237.676 148.06C237.084 148.06 236.628 147.9 236.308 147.58C235.988 147.26 235.828 146.808 235.828 146.224V142.408H234.7V141.688H235.828V140.308H236.68V141.688H238.6V142.408H236.68V146.176C236.68 146.552 236.772 146.84 236.956 147.04C237.148 147.232 237.42 147.328 237.772 147.328C237.948 147.328 238.116 147.3 238.276 147.244C238.444 147.188 238.588 147.108 238.708 147.004L239.008 147.616ZM240.643 142.948C240.467 142.948 240.315 142.884 240.187 142.756C240.067 142.628 240.007 142.472 240.007 142.288C240.007 142.104 240.067 141.952 240.187 141.832C240.315 141.704 240.467 141.64 240.643 141.64C240.819 141.64 240.971 141.704 241.099 141.832C241.227 141.952 241.291 142.104 241.291 142.288C241.291 142.472 241.227 142.628 241.099 142.756C240.971 142.884 240.819 142.948 240.643 142.948ZM240.643 148.06C240.467 148.06 240.315 147.996 240.187 147.868C240.067 147.74 240.007 147.584 240.007 147.4C240.007 147.216 240.067 147.064 240.187 146.944C240.315 146.816 240.467 146.752 240.643 146.752C240.819 146.752 240.971 146.816 241.099 146.944C241.227 147.064 241.291 147.216 241.291 147.4C241.291 147.584 241.227 147.74 241.099 147.868C240.971 147.996 240.819 148.06 240.643 148.06ZM251.415 147.232V148H245.523V147.388L249.015 143.968C249.455 143.536 249.751 143.164 249.903 142.852C250.063 142.532 250.143 142.212 250.143 141.892C250.143 141.396 249.971 141.012 249.627 140.74C249.291 140.46 248.807 140.32 248.175 140.32C247.191 140.32 246.427 140.632 245.883 141.256L245.271 140.728C245.599 140.344 246.015 140.048 246.519 139.84C247.031 139.632 247.607 139.528 248.247 139.528C249.103 139.528 249.779 139.732 250.275 140.14C250.779 140.54 251.031 141.092 251.031 141.796C251.031 142.228 250.935 142.644 250.743 143.044C250.551 143.444 250.187 143.904 249.651 144.424L246.795 147.232H251.415ZM254.707 143.044C255.923 143.044 256.807 143.264 257.359 143.704C257.919 144.136 258.199 144.744 258.199 145.528C258.199 146.016 258.083 146.452 257.851 146.836C257.627 147.22 257.287 147.524 256.831 147.748C256.375 147.964 255.815 148.072 255.151 148.072C254.551 148.072 253.979 147.976 253.435 147.784C252.899 147.584 252.467 147.32 252.139 146.992L252.559 146.308C252.839 146.596 253.207 146.832 253.663 147.016C254.119 147.192 254.611 147.28 255.139 147.28C255.835 147.28 256.371 147.124 256.747 146.812C257.131 146.5 257.323 146.084 257.323 145.564C257.323 144.988 257.107 144.552 256.675 144.256C256.251 143.96 255.531 143.812 254.515 143.812H252.727L253.159 139.6H257.755V140.368H253.915L253.627 143.044H254.707ZM263.112 141.64C263.704 141.64 264.24 141.776 264.72 142.048C265.2 142.312 265.576 142.688 265.848 143.176C266.12 143.664 266.256 144.22 266.256 144.844C266.256 145.476 266.12 146.036 265.848 146.524C265.576 147.012 265.2 147.392 264.72 147.664C264.248 147.928 263.712 148.06 263.112 148.06C262.6 148.06 262.136 147.956 261.72 147.748C261.312 147.532 260.976 147.22 260.712 146.812V150.328H259.86V141.688H260.676V142.936C260.932 142.52 261.268 142.2 261.684 141.976C262.108 141.752 262.584 141.64 263.112 141.64ZM263.052 147.304C263.492 147.304 263.892 147.204 264.252 147.004C264.612 146.796 264.892 146.504 265.092 146.128C265.3 145.752 265.404 145.324 265.404 144.844C265.404 144.364 265.3 143.94 265.092 143.572C264.892 143.196 264.612 142.904 264.252 142.696C263.892 142.488 263.492 142.384 263.052 142.384C262.604 142.384 262.2 142.488 261.84 142.696C261.488 142.904 261.208 143.196 261 143.572C260.8 143.94 260.7 144.364 260.7 144.844C260.7 145.324 260.8 145.752 261 146.128C261.208 146.504 261.488 146.796 261.84 147.004C262.2 147.204 262.604 147.304 263.052 147.304ZM271.79 148L269.786 145.36L267.77 148H266.81L269.306 144.76L266.93 141.688H267.89L269.786 144.16L271.682 141.688H272.618L270.242 144.76L272.762 148H271.79Z" fill="black"/>
<path d="M186.487 123.756C186.119 123.756 185.839 123.856 185.647 124.056C185.463 124.256 185.371 124.552 185.371 124.944V125.688H187.315V126.408H185.395V132H184.543V126.408H183.415V125.688H184.543V124.908C184.543 124.332 184.707 123.876 185.035 123.54C185.371 123.204 185.843 123.036 186.451 123.036C186.691 123.036 186.923 123.072 187.147 123.144C187.371 123.208 187.559 123.304 187.711 123.432L187.423 124.068C187.175 123.86 186.863 123.756 186.487 123.756ZM190.94 132.06C190.332 132.06 189.784 131.924 189.296 131.652C188.808 131.372 188.424 130.988 188.144 130.5C187.864 130.012 187.724 129.46 187.724 128.844C187.724 128.228 187.864 127.676 188.144 127.188C188.424 126.7 188.808 126.32 189.296 126.048C189.784 125.776 190.332 125.64 190.94 125.64C191.548 125.64 192.096 125.776 192.584 126.048C193.072 126.32 193.452 126.7 193.724 127.188C194.004 127.676 194.144 128.228 194.144 128.844C194.144 129.46 194.004 130.012 193.724 130.5C193.452 130.988 193.072 131.372 192.584 131.652C192.096 131.924 191.548 132.06 190.94 132.06ZM190.94 131.304C191.388 131.304 191.788 131.204 192.14 131.004C192.5 130.796 192.78 130.504 192.98 130.128C193.18 129.752 193.28 129.324 193.28 128.844C193.28 128.364 193.18 127.936 192.98 127.56C192.78 127.184 192.5 126.896 192.14 126.696C191.788 126.488 191.388 126.384 190.94 126.384C190.492 126.384 190.088 126.488 189.728 126.696C189.376 126.896 189.096 127.184 188.888 127.56C188.688 127.936 188.588 128.364 188.588 128.844C188.588 129.324 188.688 129.752 188.888 130.128C189.096 130.504 189.376 130.796 189.728 131.004C190.088 131.204 190.492 131.304 190.94 131.304ZM199.099 125.64C199.891 125.64 200.519 125.872 200.983 126.336C201.455 126.792 201.691 127.46 201.691 128.34V132H200.839V128.424C200.839 127.768 200.675 127.268 200.347 126.924C200.019 126.58 199.551 126.408 198.943 126.408C198.263 126.408 197.723 126.612 197.323 127.02C196.931 127.42 196.735 127.976 196.735 128.688V132H195.883V125.688H196.699V126.852C196.931 126.468 197.251 126.172 197.659 125.964C198.075 125.748 198.555 125.64 199.099 125.64ZM207.328 131.616C207.168 131.76 206.968 131.872 206.728 131.952C206.496 132.024 206.252 132.06 205.996 132.06C205.404 132.06 204.948 131.9 204.628 131.58C204.308 131.26 204.148 130.808 204.148 130.224V126.408H203.02V125.688H204.148V124.308H205V125.688H206.92V126.408H205V130.176C205 130.552 205.092 130.84 205.276 131.04C205.468 131.232 205.74 131.328 206.092 131.328C206.268 131.328 206.436 131.3 206.596 131.244C206.764 131.188 206.908 131.108 207.028 131.004L207.328 131.616ZM208.294 128.376H211.438V129.12H208.294V128.376ZM215.036 132.06C214.524 132.06 214.032 131.988 213.56 131.844C213.096 131.692 212.732 131.504 212.468 131.28L212.852 130.608C213.116 130.816 213.448 130.988 213.848 131.124C214.248 131.252 214.664 131.316 215.096 131.316C215.672 131.316 216.096 131.228 216.368 131.052C216.648 130.868 216.788 130.612 216.788 130.284C216.788 130.052 216.712 129.872 216.56 129.744C216.408 129.608 216.216 129.508 215.984 129.444C215.752 129.372 215.444 129.304 215.06 129.24C214.548 129.144 214.136 129.048 213.824 128.952C213.512 128.848 213.244 128.676 213.02 128.436C212.804 128.196 212.696 127.864 212.696 127.44C212.696 126.912 212.916 126.48 213.356 126.144C213.796 125.808 214.408 125.64 215.192 125.64C215.6 125.64 216.008 125.696 216.416 125.808C216.824 125.912 217.16 126.052 217.424 126.228L217.052 126.912C216.532 126.552 215.912 126.372 215.192 126.372C214.648 126.372 214.236 126.468 213.956 126.66C213.684 126.852 213.548 127.104 213.548 127.416C213.548 127.656 213.624 127.848 213.776 127.992C213.936 128.136 214.132 128.244 214.364 128.316C214.596 128.38 214.916 128.448 215.324 128.52C215.828 128.616 216.232 128.712 216.536 128.808C216.84 128.904 217.1 129.068 217.316 129.3C217.532 129.532 217.64 129.852 217.64 130.26C217.64 130.812 217.408 131.252 216.944 131.58C216.488 131.9 215.852 132.06 215.036 132.06ZM219.215 125.688H220.067V132H219.215V125.688ZM219.647 124.308C219.471 124.308 219.323 124.248 219.203 124.128C219.083 124.008 219.023 123.864 219.023 123.696C219.023 123.536 219.083 123.396 219.203 123.276C219.323 123.156 219.471 123.096 219.647 123.096C219.823 123.096 219.971 123.156 220.091 123.276C220.211 123.388 220.271 123.524 220.271 123.684C220.271 123.86 220.211 124.008 220.091 124.128C219.971 124.248 219.823 124.308 219.647 124.308ZM226.89 131.292V132H221.754V131.436L225.726 126.408H221.826V125.688H226.818V126.252L222.846 131.292H226.89ZM233.957 129.108H228.677C228.725 129.764 228.977 130.296 229.433 130.704C229.889 131.104 230.465 131.304 231.161 131.304C231.553 131.304 231.913 131.236 232.241 131.1C232.569 130.956 232.853 130.748 233.093 130.476L233.573 131.028C233.293 131.364 232.941 131.62 232.517 131.796C232.101 131.972 231.641 132.06 231.137 132.06C230.489 132.06 229.913 131.924 229.409 131.652C228.913 131.372 228.525 130.988 228.245 130.5C227.965 130.012 227.825 129.46 227.825 128.844C227.825 128.228 227.957 127.676 228.221 127.188C228.493 126.7 228.861 126.32 229.325 126.048C229.797 125.776 230.325 125.64 230.909 125.64C231.493 125.64 232.017 125.776 232.481 126.048C232.945 126.32 233.309 126.7 233.573 127.188C233.837 127.668 233.969 128.22 233.969 128.844L233.957 129.108ZM230.909 126.372C230.301 126.372 229.789 126.568 229.373 126.96C228.965 127.344 228.733 127.848 228.677 128.472H233.153C233.097 127.848 232.861 127.344 232.445 126.96C232.037 126.568 231.525 126.372 230.909 126.372ZM235.788 126.948C235.612 126.948 235.46 126.884 235.332 126.756C235.212 126.628 235.152 126.472 235.152 126.288C235.152 126.104 235.212 125.952 235.332 125.832C235.46 125.704 235.612 125.64 235.788 125.64C235.964 125.64 236.116 125.704 236.244 125.832C236.372 125.952 236.436 126.104 236.436 126.288C236.436 126.472 236.372 126.628 236.244 126.756C236.116 126.884 235.964 126.948 235.788 126.948ZM235.788 132.06C235.612 132.06 235.46 131.996 235.332 131.868C235.212 131.74 235.152 131.584 235.152 131.4C235.152 131.216 235.212 131.064 235.332 130.944C235.46 130.816 235.612 130.752 235.788 130.752C235.964 130.752 236.116 130.816 236.244 130.944C236.372 131.064 236.436 131.216 236.436 131.4C236.436 131.584 236.372 131.74 236.244 131.868C236.116 131.996 235.964 132.06 235.788 132.06ZM243.151 123.6V132H242.287V124.368H240.307V123.6H243.151ZM252.299 129.792H250.619V132H249.755V129.792H245.015V129.168L249.467 123.6H250.427L246.131 129.024H249.779V127.08H250.619V129.024H252.299V129.792ZM256.909 125.64C257.501 125.64 258.037 125.776 258.517 126.048C258.997 126.312 259.373 126.688 259.645 127.176C259.917 127.664 260.053 128.22 260.053 128.844C260.053 129.476 259.917 130.036 259.645 130.524C259.373 131.012 258.997 131.392 258.517 131.664C258.045 131.928 257.509 132.06 256.909 132.06C256.397 132.06 255.933 131.956 255.517 131.748C255.109 131.532 254.773 131.22 254.509 130.812V134.328H253.657V125.688H254.473V126.936C254.729 126.52 255.065 126.2 255.481 125.976C255.905 125.752 256.381 125.64 256.909 125.64ZM256.849 131.304C257.289 131.304 257.689 131.204 258.049 131.004C258.409 130.796 258.689 130.504 258.889 130.128C259.097 129.752 259.201 129.324 259.201 128.844C259.201 128.364 259.097 127.94 258.889 127.572C258.689 127.196 258.409 126.904 258.049 126.696C257.689 126.488 257.289 126.384 256.849 126.384C256.401 126.384 255.997 126.488 255.637 126.696C255.285 126.904 255.005 127.196 254.797 127.572C254.597 127.94 254.497 128.364 254.497 128.844C254.497 129.324 254.597 129.752 254.797 130.128C255.005 130.504 255.285 130.796 255.637 131.004C255.997 131.204 256.401 131.304 256.849 131.304ZM265.587 132L263.583 129.36L261.567 132H260.607L263.103 128.76L260.727 125.688H261.687L263.583 128.16L265.479 125.688H266.415L264.039 128.76L266.559 132H265.587Z" fill="black"/>
<rect x="160" y="179" width="128" height="74" fill="#D5D5D5"/>
<path d="M201.092 207.12C200.068 207.12 199.084 206.976 198.14 206.688C197.212 206.384 196.484 206.008 195.956 205.56L196.724 204.216C197.252 204.632 197.916 204.976 198.716 205.248C199.516 205.504 200.348 205.632 201.212 205.632C202.364 205.632 203.212 205.456 203.756 205.104C204.316 204.736 204.596 204.224 204.596 203.568C204.596 203.104 204.444 202.744 204.14 202.488C203.836 202.216 203.452 202.016 202.988 201.888C202.524 201.744 201.908 201.608 201.14 201.48C200.116 201.288 199.292 201.096 198.668 200.904C198.044 200.696 197.508 200.352 197.06 199.872C196.628 199.392 196.412 198.728 196.412 197.88C196.412 196.824 196.852 195.96 197.732 195.288C198.612 194.616 199.836 194.28 201.404 194.28C202.22 194.28 203.036 194.392 203.852 194.616C204.668 194.824 205.34 195.104 205.868 195.456L205.124 196.824C204.084 196.104 202.844 195.744 201.404 195.744C200.316 195.744 199.492 195.936 198.932 196.32C198.388 196.704 198.116 197.208 198.116 197.832C198.116 198.312 198.268 198.696 198.572 198.984C198.892 199.272 199.284 199.488 199.748 199.632C200.212 199.76 200.852 199.896 201.668 200.04C202.676 200.232 203.484 200.424 204.092 200.616C204.7 200.808 205.22 201.136 205.652 201.6C206.084 202.064 206.3 202.704 206.3 203.52C206.3 204.624 205.836 205.504 204.908 206.16C203.996 206.8 202.724 207.12 201.092 207.12ZM215.954 194.28C217.138 194.28 218.21 194.552 219.17 195.096C220.13 195.624 220.882 196.376 221.426 197.352C221.97 198.328 222.242 199.44 222.242 200.688C222.242 201.952 221.97 203.072 221.426 204.048C220.882 205.024 220.13 205.784 219.17 206.328C218.226 206.856 217.154 207.12 215.954 207.12C214.93 207.12 214.002 206.912 213.17 206.496C212.354 206.064 211.682 205.44 211.154 204.624V211.656H209.45V194.376H211.082V196.872C211.594 196.04 212.266 195.4 213.098 194.952C213.946 194.504 214.898 194.28 215.954 194.28ZM215.834 205.608C216.714 205.608 217.514 205.408 218.234 205.008C218.954 204.592 219.514 204.008 219.914 203.256C220.33 202.504 220.538 201.648 220.538 200.688C220.538 199.728 220.33 198.88 219.914 198.144C219.514 197.392 218.954 196.808 218.234 196.392C217.514 195.976 216.714 195.768 215.834 195.768C214.938 195.768 214.13 195.976 213.41 196.392C212.706 196.808 212.146 197.392 211.73 198.144C211.33 198.88 211.13 199.728 211.13 200.688C211.13 201.648 211.33 202.504 211.73 203.256C212.146 204.008 212.706 204.592 213.41 205.008C214.13 205.408 214.938 205.608 215.834 205.608ZM230.062 194.28C231.71 194.28 232.974 194.696 233.854 195.528C234.734 196.344 235.174 197.56 235.174 199.176V207H233.542V205.032C233.158 205.688 232.59 206.2 231.838 206.568C231.102 206.936 230.222 207.12 229.198 207.12C227.79 207.12 226.67 206.784 225.838 206.112C225.006 205.44 224.59 204.552 224.59 203.448C224.59 202.376 224.974 201.512 225.742 200.856C226.526 200.2 227.766 199.872 229.462 199.872H233.47V199.104C233.47 198.016 233.166 197.192 232.558 196.632C231.95 196.056 231.062 195.768 229.894 195.768C229.094 195.768 228.326 195.904 227.59 196.176C226.854 196.432 226.222 196.792 225.694 197.256L224.926 195.984C225.566 195.44 226.334 195.024 227.23 194.736C228.126 194.432 229.07 194.28 230.062 194.28ZM229.462 205.776C230.422 205.776 231.246 205.56 231.934 205.128C232.622 204.68 233.134 204.04 233.47 203.208V201.144H229.51C227.35 201.144 226.27 201.896 226.27 203.4C226.27 204.136 226.55 204.72 227.11 205.152C227.67 205.568 228.454 205.776 229.462 205.776ZM246.234 194.28C247.818 194.28 249.074 194.744 250.002 195.672C250.946 196.584 251.418 197.92 251.418 199.68V207H249.714V199.848C249.714 198.536 249.386 197.536 248.73 196.848C248.074 196.16 247.138 195.816 245.922 195.816C244.562 195.816 243.482 196.224 242.682 197.04C241.898 197.84 241.506 198.952 241.506 200.376V207H239.802V194.376H241.434V196.704C241.898 195.936 242.538 195.344 243.354 194.928C244.186 194.496 245.146 194.28 246.234 194.28Z" fill="black"/>
<path d="M185.487 234.756C185.119 234.756 184.839 234.856 184.647 235.056C184.463 235.256 184.371 235.552 184.371 235.944V236.688H186.315V237.408H184.395V243H183.543V237.408H182.415V236.688H183.543V235.908C183.543 235.332 183.707 234.876 184.035 234.54C184.371 234.204 184.843 234.036 185.451 234.036C185.691 234.036 185.923 234.072 186.147 234.144C186.371 234.208 186.559 234.304 186.711 234.432L186.423 235.068C186.175 234.86 185.863 234.756 185.487 234.756ZM189.94 243.06C189.332 243.06 188.784 242.924 188.296 242.652C187.808 242.372 187.424 241.988 187.144 241.5C186.864 241.012 186.724 240.46 186.724 239.844C186.724 239.228 186.864 238.676 187.144 238.188C187.424 237.7 187.808 237.32 188.296 237.048C188.784 236.776 189.332 236.64 189.94 236.64C190.548 236.64 191.096 236.776 191.584 237.048C192.072 237.32 192.452 237.7 192.724 238.188C193.004 238.676 193.144 239.228 193.144 239.844C193.144 240.46 193.004 241.012 192.724 241.5C192.452 241.988 192.072 242.372 191.584 242.652C191.096 242.924 190.548 243.06 189.94 243.06ZM189.94 242.304C190.388 242.304 190.788 242.204 191.14 242.004C191.5 241.796 191.78 241.504 191.98 241.128C192.18 240.752 192.28 240.324 192.28 239.844C192.28 239.364 192.18 238.936 191.98 238.56C191.78 238.184 191.5 237.896 191.14 237.696C190.788 237.488 190.388 237.384 189.94 237.384C189.492 237.384 189.088 237.488 188.728 237.696C188.376 237.896 188.096 238.184 187.888 238.56C187.688 238.936 187.588 239.364 187.588 239.844C187.588 240.324 187.688 240.752 187.888 241.128C188.096 241.504 188.376 241.796 188.728 242.004C189.088 242.204 189.492 242.304 189.94 242.304ZM198.099 236.64C198.891 236.64 199.519 236.872 199.983 237.336C200.455 237.792 200.691 238.46 200.691 239.34V243H199.839V239.424C199.839 238.768 199.675 238.268 199.347 237.924C199.019 237.58 198.551 237.408 197.943 237.408C197.263 237.408 196.723 237.612 196.323 238.02C195.931 238.42 195.735 238.976 195.735 239.688V243H194.883V236.688H195.699V237.852C195.931 237.468 196.251 237.172 196.659 236.964C197.075 236.748 197.555 236.64 198.099 236.64ZM206.328 242.616C206.168 242.76 205.968 242.872 205.728 242.952C205.496 243.024 205.252 243.06 204.996 243.06C204.404 243.06 203.948 242.9 203.628 242.58C203.308 242.26 203.148 241.808 203.148 241.224V237.408H202.02V236.688H203.148V235.308H204V236.688H205.92V237.408H204V241.176C204 241.552 204.092 241.84 204.276 242.04C204.468 242.232 204.74 242.328 205.092 242.328C205.268 242.328 205.436 242.3 205.596 242.244C205.764 242.188 205.908 242.108 206.028 242.004L206.328 242.616ZM207.294 239.376H210.438V240.12H207.294V239.376ZM214.036 243.06C213.524 243.06 213.032 242.988 212.56 242.844C212.096 242.692 211.732 242.504 211.468 242.28L211.852 241.608C212.116 241.816 212.448 241.988 212.848 242.124C213.248 242.252 213.664 242.316 214.096 242.316C214.672 242.316 215.096 242.228 215.368 242.052C215.648 241.868 215.788 241.612 215.788 241.284C215.788 241.052 215.712 240.872 215.56 240.744C215.408 240.608 215.216 240.508 214.984 240.444C214.752 240.372 214.444 240.304 214.06 240.24C213.548 240.144 213.136 240.048 212.824 239.952C212.512 239.848 212.244 239.676 212.02 239.436C211.804 239.196 211.696 238.864 211.696 238.44C211.696 237.912 211.916 237.48 212.356 237.144C212.796 236.808 213.408 236.64 214.192 236.64C214.6 236.64 215.008 236.696 215.416 236.808C215.824 236.912 216.16 237.052 216.424 237.228L216.052 237.912C215.532 237.552 214.912 237.372 214.192 237.372C213.648 237.372 213.236 237.468 212.956 237.66C212.684 237.852 212.548 238.104 212.548 238.416C212.548 238.656 212.624 238.848 212.776 238.992C212.936 239.136 213.132 239.244 213.364 239.316C213.596 239.38 213.916 239.448 214.324 239.52C214.828 239.616 215.232 239.712 215.536 239.808C215.84 239.904 216.1 240.068 216.316 240.3C216.532 240.532 216.64 240.852 216.64 241.26C216.64 241.812 216.408 242.252 215.944 242.58C215.488 242.9 214.852 243.06 214.036 243.06ZM218.215 236.688H219.067V243H218.215V236.688ZM218.647 235.308C218.471 235.308 218.323 235.248 218.203 235.128C218.083 235.008 218.023 234.864 218.023 234.696C218.023 234.536 218.083 234.396 218.203 234.276C218.323 234.156 218.471 234.096 218.647 234.096C218.823 234.096 218.971 234.156 219.091 234.276C219.211 234.388 219.271 234.524 219.271 234.684C219.271 234.86 219.211 235.008 219.091 235.128C218.971 235.248 218.823 235.308 218.647 235.308ZM225.89 242.292V243H220.754V242.436L224.726 237.408H220.826V236.688H225.818V237.252L221.846 242.292H225.89ZM232.957 240.108H227.677C227.725 240.764 227.977 241.296 228.433 241.704C228.889 242.104 229.465 242.304 230.161 242.304C230.553 242.304 230.913 242.236 231.241 242.1C231.569 241.956 231.853 241.748 232.093 241.476L232.573 242.028C232.293 242.364 231.941 242.62 231.517 242.796C231.101 242.972 230.641 243.06 230.137 243.06C229.489 243.06 228.913 242.924 228.409 242.652C227.913 242.372 227.525 241.988 227.245 241.5C226.965 241.012 226.825 240.46 226.825 239.844C226.825 239.228 226.957 238.676 227.221 238.188C227.493 237.7 227.861 237.32 228.325 237.048C228.797 236.776 229.325 236.64 229.909 236.64C230.493 236.64 231.017 236.776 231.481 237.048C231.945 237.32 232.309 237.7 232.573 238.188C232.837 238.668 232.969 239.22 232.969 239.844L232.957 240.108ZM229.909 237.372C229.301 237.372 228.789 237.568 228.373 237.96C227.965 238.344 227.733 238.848 227.677 239.472H232.153C232.097 238.848 231.861 238.344 231.445 237.96C231.037 237.568 230.525 237.372 229.909 237.372ZM234.788 237.948C234.612 237.948 234.46 237.884 234.332 237.756C234.212 237.628 234.152 237.472 234.152 237.288C234.152 237.104 234.212 236.952 234.332 236.832C234.46 236.704 234.612 236.64 234.788 236.64C234.964 236.64 235.116 236.704 235.244 236.832C235.372 236.952 235.436 237.104 235.436 237.288C235.436 237.472 235.372 237.628 235.244 237.756C235.116 237.884 234.964 237.948 234.788 237.948ZM234.788 243.06C234.612 243.06 234.46 242.996 234.332 242.868C234.212 242.74 234.152 242.584 234.152 242.4C234.152 242.216 234.212 242.064 234.332 241.944C234.46 241.816 234.612 241.752 234.788 241.752C234.964 241.752 235.116 241.816 235.244 241.944C235.372 242.064 235.436 242.216 235.436 242.4C235.436 242.584 235.372 242.74 235.244 242.868C235.116 242.996 234.964 243.06 234.788 243.06ZM242.151 234.6V243H241.287V235.368H239.307V234.6H242.151ZM251.299 240.792H249.619V243H248.755V240.792H244.015V240.168L248.467 234.6H249.427L245.131 240.024H248.779V238.08H249.619V240.024H251.299V240.792ZM255.909 236.64C256.501 236.64 257.037 236.776 257.517 237.048C257.997 237.312 258.373 237.688 258.645 238.176C258.917 238.664 259.053 239.22 259.053 239.844C259.053 240.476 258.917 241.036 258.645 241.524C258.373 242.012 257.997 242.392 257.517 242.664C257.045 242.928 256.509 243.06 255.909 243.06C255.397 243.06 254.933 242.956 254.517 242.748C254.109 242.532 253.773 242.22 253.509 241.812V245.328H252.657V236.688H253.473V237.936C253.729 237.52 254.065 237.2 254.481 236.976C254.905 236.752 255.381 236.64 255.909 236.64ZM255.849 242.304C256.289 242.304 256.689 242.204 257.049 242.004C257.409 241.796 257.689 241.504 257.889 241.128C258.097 240.752 258.201 240.324 258.201 239.844C258.201 239.364 258.097 238.94 257.889 238.572C257.689 238.196 257.409 237.904 257.049 237.696C256.689 237.488 256.289 237.384 255.849 237.384C255.401 237.384 254.997 237.488 254.637 237.696C254.285 237.904 254.005 238.196 253.797 238.572C253.597 238.94 253.497 239.364 253.497 239.844C253.497 240.324 253.597 240.752 253.797 241.128C254.005 241.504 254.285 241.796 254.637 242.004C254.997 242.204 255.401 242.304 255.849 242.304ZM264.587 243L262.583 240.36L260.567 243H259.607L262.103 239.76L259.727 236.688H260.687L262.583 239.16L264.479 236.688H265.415L263.039 239.76L265.559 243H264.587Z" fill="black"/>
<rect x="221" y="219" width="6" height="6" fill="#00FF38"/>
<path d="M188.12 225.06C187.496 225.06 186.936 224.924 186.44 224.652C185.952 224.38 185.568 224 185.288 223.512C185.008 223.016 184.868 222.46 184.868 221.844C184.868 221.228 185.008 220.676 185.288 220.188C185.568 219.7 185.952 219.32 186.44 219.048C186.936 218.776 187.496 218.64 188.12 218.64C188.664 218.64 189.148 218.748 189.572 218.964C190.004 219.172 190.344 219.48 190.592 219.888L189.956 220.32C189.748 220.008 189.484 219.776 189.164 219.624C188.844 219.464 188.496 219.384 188.12 219.384C187.664 219.384 187.252 219.488 186.884 219.696C186.524 219.896 186.24 220.184 186.032 220.56C185.832 220.936 185.732 221.364 185.732 221.844C185.732 222.332 185.832 222.764 186.032 223.14C186.24 223.508 186.524 223.796 186.884 224.004C187.252 224.204 187.664 224.304 188.12 224.304C188.496 224.304 188.844 224.228 189.164 224.076C189.484 223.924 189.748 223.692 189.956 223.38L190.592 223.812C190.344 224.22 190.004 224.532 189.572 224.748C189.14 224.956 188.656 225.06 188.12 225.06ZM194.741 225.06C194.133 225.06 193.585 224.924 193.097 224.652C192.609 224.372 192.225 223.988 191.945 223.5C191.665 223.012 191.525 222.46 191.525 221.844C191.525 221.228 191.665 220.676 191.945 220.188C192.225 219.7 192.609 219.32 193.097 219.048C193.585 218.776 194.133 218.64 194.741 218.64C195.349 218.64 195.897 218.776 196.385 219.048C196.873 219.32 197.253 219.7 197.525 220.188C197.805 220.676 197.945 221.228 197.945 221.844C197.945 222.46 197.805 223.012 197.525 223.5C197.253 223.988 196.873 224.372 196.385 224.652C195.897 224.924 195.349 225.06 194.741 225.06ZM194.741 224.304C195.189 224.304 195.589 224.204 195.941 224.004C196.301 223.796 196.581 223.504 196.781 223.128C196.981 222.752 197.081 222.324 197.081 221.844C197.081 221.364 196.981 220.936 196.781 220.56C196.581 220.184 196.301 219.896 195.941 219.696C195.589 219.488 195.189 219.384 194.741 219.384C194.293 219.384 193.889 219.488 193.529 219.696C193.177 219.896 192.897 220.184 192.689 220.56C192.489 220.936 192.389 221.364 192.389 221.844C192.389 222.324 192.489 222.752 192.689 223.128C192.897 223.504 193.177 223.796 193.529 224.004C193.889 224.204 194.293 224.304 194.741 224.304ZM199.684 216.096H200.536V225H199.684V216.096ZM205.487 225.06C204.879 225.06 204.331 224.924 203.843 224.652C203.355 224.372 202.971 223.988 202.691 223.5C202.411 223.012 202.271 222.46 202.271 221.844C202.271 221.228 202.411 220.676 202.691 220.188C202.971 219.7 203.355 219.32 203.843 219.048C204.331 218.776 204.879 218.64 205.487 218.64C206.095 218.64 206.643 218.776 207.131 219.048C207.619 219.32 207.999 219.7 208.271 220.188C208.551 220.676 208.691 221.228 208.691 221.844C208.691 222.46 208.551 223.012 208.271 223.5C207.999 223.988 207.619 224.372 207.131 224.652C206.643 224.924 206.095 225.06 205.487 225.06ZM205.487 224.304C205.935 224.304 206.335 224.204 206.687 224.004C207.047 223.796 207.327 223.504 207.527 223.128C207.727 222.752 207.827 222.324 207.827 221.844C207.827 221.364 207.727 220.936 207.527 220.56C207.327 220.184 207.047 219.896 206.687 219.696C206.335 219.488 205.935 219.384 205.487 219.384C205.039 219.384 204.635 219.488 204.275 219.696C203.923 219.896 203.643 220.184 203.435 220.56C203.235 220.936 203.135 221.364 203.135 221.844C203.135 222.324 203.235 222.752 203.435 223.128C203.643 223.504 203.923 223.796 204.275 224.004C204.635 224.204 205.039 224.304 205.487 224.304ZM211.246 219.924C211.446 219.5 211.742 219.18 212.134 218.964C212.534 218.748 213.026 218.64 213.61 218.64V219.468L213.406 219.456C212.742 219.456 212.222 219.66 211.846 220.068C211.47 220.476 211.282 221.048 211.282 221.784V225H210.43V218.688H211.246V219.924ZM215.354 219.948C215.178 219.948 215.026 219.884 214.898 219.756C214.778 219.628 214.718 219.472 214.718 219.288C214.718 219.104 214.778 218.952 214.898 218.832C215.026 218.704 215.178 218.64 215.354 218.64C215.53 218.64 215.682 218.704 215.81 218.832C215.938 218.952 216.002 219.104 216.002 219.288C216.002 219.472 215.938 219.628 215.81 219.756C215.682 219.884 215.53 219.948 215.354 219.948ZM215.354 225.06C215.178 225.06 215.026 224.996 214.898 224.868C214.778 224.74 214.718 224.584 214.718 224.4C214.718 224.216 214.778 224.064 214.898 223.944C215.026 223.816 215.178 223.752 215.354 223.752C215.53 223.752 215.682 223.816 215.81 223.944C215.938 224.064 216.002 224.216 216.002 224.4C216.002 224.584 215.938 224.74 215.81 224.868C215.682 224.996 215.53 225.06 215.354 225.06ZM236.22 218.688V224.232C236.22 225.304 235.956 226.096 235.428 226.608C234.908 227.128 234.12 227.388 233.064 227.388C232.48 227.388 231.924 227.3 231.396 227.124C230.876 226.956 230.452 226.72 230.124 226.416L230.556 225.768C230.86 226.04 231.228 226.252 231.66 226.404C232.1 226.556 232.56 226.632 233.04 226.632C233.84 226.632 234.428 226.444 234.804 226.068C235.18 225.7 235.368 225.124 235.368 224.34V223.536C235.104 223.936 234.756 224.24 234.324 224.448C233.9 224.656 233.428 224.76 232.908 224.76C232.316 224.76 231.776 224.632 231.288 224.376C230.808 224.112 230.428 223.748 230.148 223.284C229.876 222.812 229.74 222.28 229.74 221.688C229.74 221.096 229.876 220.568 230.148 220.104C230.428 219.64 230.808 219.28 231.288 219.024C231.768 218.768 232.308 218.64 232.908 218.64C233.444 218.64 233.928 218.748 234.36 218.964C234.792 219.18 235.14 219.492 235.404 219.9V218.688H236.22ZM232.992 224.004C233.448 224.004 233.86 223.908 234.228 223.716C234.596 223.516 234.88 223.24 235.08 222.888C235.288 222.536 235.392 222.136 235.392 221.688C235.392 221.24 235.288 220.844 235.08 220.5C234.88 220.148 234.596 219.876 234.228 219.684C233.868 219.484 233.456 219.384 232.992 219.384C232.536 219.384 232.124 219.48 231.756 219.672C231.396 219.864 231.112 220.136 230.904 220.488C230.704 220.84 230.604 221.24 230.604 221.688C230.604 222.136 230.704 222.536 230.904 222.888C231.112 223.24 231.396 223.516 231.756 223.716C232.124 223.908 232.536 224.004 232.992 224.004ZM239.418 219.924C239.618 219.5 239.914 219.18 240.306 218.964C240.706 218.748 241.198 218.64 241.782 218.64V219.468L241.578 219.456C240.914 219.456 240.394 219.66 240.018 220.068C239.642 220.476 239.454 221.048 239.454 221.784V225H238.602V218.688H239.418V219.924ZM248.762 222.108H243.482C243.53 222.764 243.782 223.296 244.238 223.704C244.694 224.104 245.27 224.304 245.966 224.304C246.358 224.304 246.718 224.236 247.046 224.1C247.374 223.956 247.658 223.748 247.898 223.476L248.378 224.028C248.098 224.364 247.746 224.62 247.322 224.796C246.906 224.972 246.446 225.06 245.942 225.06C245.294 225.06 244.718 224.924 244.214 224.652C243.718 224.372 243.33 223.988 243.05 223.5C242.77 223.012 242.63 222.46 242.63 221.844C242.63 221.228 242.762 220.676 243.026 220.188C243.298 219.7 243.666 219.32 244.13 219.048C244.602 218.776 245.13 218.64 245.714 218.64C246.298 218.64 246.822 218.776 247.286 219.048C247.75 219.32 248.114 219.7 248.378 220.188C248.642 220.668 248.774 221.22 248.774 221.844L248.762 222.108ZM245.714 219.372C245.106 219.372 244.594 219.568 244.178 219.96C243.77 220.344 243.538 220.848 243.482 221.472H247.958C247.902 220.848 247.666 220.344 247.25 219.96C246.842 219.568 246.33 219.372 245.714 219.372ZM256.004 222.108H250.724C250.772 222.764 251.024 223.296 251.48 223.704C251.936 224.104 252.512 224.304 253.208 224.304C253.6 224.304 253.96 224.236 254.288 224.1C254.616 223.956 254.9 223.748 255.14 223.476L255.62 224.028C255.34 224.364 254.988 224.62 254.564 224.796C254.148 224.972 253.688 225.06 253.184 225.06C252.536 225.06 251.96 224.924 251.456 224.652C250.96 224.372 250.572 223.988 250.292 223.5C250.012 223.012 249.872 222.46 249.872 221.844C249.872 221.228 250.004 220.676 250.268 220.188C250.54 219.7 250.908 219.32 251.372 219.048C251.844 218.776 252.372 218.64 252.956 218.64C253.54 218.64 254.064 218.776 254.528 219.048C254.992 219.32 255.356 219.7 255.62 220.188C255.884 220.668 256.016 221.22 256.016 221.844L256.004 222.108ZM252.956 219.372C252.348 219.372 251.836 219.568 251.42 219.96C251.012 220.344 250.78 220.848 250.724 221.472H255.2C255.144 220.848 254.908 220.344 254.492 219.96C254.084 219.568 253.572 219.372 252.956 219.372ZM260.967 218.64C261.759 218.64 262.387 218.872 262.851 219.336C263.323 219.792 263.559 220.46 263.559 221.34V225H262.707V221.424C262.707 220.768 262.543 220.268 262.215 219.924C261.887 219.58 261.419 219.408 260.811 219.408C260.131 219.408 259.591 219.612 259.191 220.02C258.799 220.42 258.603 220.976 258.603 221.688V225H257.751V218.688H258.567V219.852C258.799 219.468 259.119 219.172 259.527 218.964C259.943 218.748 260.423 218.64 260.967 218.64Z" fill="black"/>
</svg>
